<?xml version="1.0" encoding="UTF-8" standalone="no"?>
<!-- Created with Inkscape (http://www.inkscape.org/) -->

<svg
   xmlns:dc="http://purl.org/dc/elements/1.1/"
   xmlns:cc="http://creativecommons.org/ns#"
   xmlns:rdf="http://www.w3.org/1999/02/22-rdf-syntax-ns#"
   xmlns:svg="http://www.w3.org/2000/svg"
   xmlns="http://www.w3.org/2000/svg"
   xmlns:sodipodi="http://sodipodi.sourceforge.net/DTD/sodipodi-0.dtd"
   xmlns:inkscape="http://www.inkscape.org/namespaces/inkscape"
   width="210mm"
   height="297mm"
   viewBox="0 0 210 297"
   version="1.1"
   id="svg834"
   inkscape:version="0.92.3 (2405546, 2018-03-11)"
   sodipodi:docname="mzqc.svg">
  <defs
     id="defs828" />
  <sodipodi:namedview
     id="base"
     pagecolor="#ffffff"
     bordercolor="#666666"
     borderopacity="1.0"
     inkscape:pageopacity="0.0"
     inkscape:pageshadow="2"
     inkscape:zoom="0.35"
     inkscape:cx="-82.857143"
     inkscape:cy="902.85714"
     inkscape:document-units="mm"
     inkscape:current-layer="layer1"
     showgrid="false"
     inkscape:window-width="1880"
     inkscape:window-height="1055"
     inkscape:window-x="40"
     inkscape:window-y="0"
     inkscape:window-maximized="1" />
  <metadata
     id="metadata831">
    <rdf:RDF>
      <cc:Work
         rdf:about="">
        <dc:format>image/svg+xml</dc:format>
        <dc:type
           rdf:resource="http://purl.org/dc/dcmitype/StillImage" />
        <dc:title></dc:title>
      </cc:Work>
    </rdf:RDF>
  </metadata>
  <g
     inkscape:label="Layer 1"
     inkscape:groupmode="layer"
     id="layer1">
    <path
       style="fill:#000000;stroke-width:0.35277778;fill-opacity:1"
       d="m 56.549326,256.81739 c -2.51104,-0.89378 -4.26478,-2.0826 -6.37269,-4.31987 -3.39718,-3.60565 -4.62457,-7.21097 -5.00023,-14.68769 l -0.2391,-4.75868 -5.29166,-2.68467 C 29.539046,225.239 22.198907,219.39225 15.833142,211.39875 10.851245,205.14298 7.7760972,199.13132 5.8541542,191.89067 c -1.012457,-3.81428 -1.077545,-4.4473 -1.088204,-10.58333 -0.0096,-5.52454 0.107541,-7.02511 0.763071,-9.77527 2.407815,-10.10153 8.1816098,-19.33618 17.0068988,-27.20096 8.833186,-7.87183 18.664786,-12.47687 27.812936,-13.02739 2.23246,-0.13433 3.35182,-0.34664 3.47146,-0.65841 0.0971,-0.25309 -1.49905,-6.30111 -3.54703,-13.44004 -2.04798,-7.13893 -6.74544,-23.490656 -10.43882,-36.337167 -3.69337,-12.84651 -6.71521,-23.44307 -6.71521,-23.54791 0,-0.10485 -0.16231,-0.19063 -0.36068,-0.19063 -0.24358,0 -0.32948,9.47716 -0.26458,29.192359 0.10522,31.964448 0.0112,30.603168 2.19325,31.754038 0.69339,0.3657 2.39904,0.63938 4.78201,0.76728 l 3.70417,0.19883 v 5.82083 5.82083 l -19.323133,0.0912 -19.3231268,0.0912 0.09674,-5.91204 0.09674,-5.91204 4.409722,-0.19666 c 5.9679588,-0.26614 7.0244288,-0.7943 7.7320648,-3.8655 0.499205,-2.16659 0.499205,-56.736886 0,-58.903466 -0.705765,-3.06308 -1.729504,-3.57351 -7.7320648,-3.85521 l -4.409723,-0.20693 -0.09672,-5.90903 -0.09672,-5.90902 H 28.338082 52.148958 l 0.70472,2.38125 c 0.77971,2.63466 4.16743,14.57287 10.43625,36.777079 2.27334,8.052152 4.27042,14.788444 4.43796,14.969535 0.16754,0.181094 0.38555,0.248327 0.48447,0.14941 0.0989,-0.09891 2.8058,-8.978331 6.01531,-19.732035 3.2095,-10.753699 6.14631,-20.584059 6.52624,-21.845249 0.37992,-1.26118 1.37697,-4.59493 2.21567,-7.40833 l 1.52489,-5.11528 60.566572,-0.0892 60.56657,-0.0892 v 6.63491 6.6349 l -10.08762,12.85707 c -5.54819,7.071396 -11.88861,15.158954 -14.08983,17.972356 -2.20122,2.813402 -9.16328,11.691631 -15.47125,19.7294 -6.30797,8.03776 -11.38818,14.74495 -11.28935,14.90486 0.0988,0.15991 4.62201,0.29074 10.05152,0.29074 10.94245,0 13.62763,-0.32358 17.49017,-2.10772 5.76427,-2.66255 8.55594,-8.03166 9.72626,-18.706164 l 0.44479,-4.056949 6.61266,-0.09598 6.61265,-0.09598 v 39.342513 39.3425 h -7.06663 c -5.35552,0 -7.09504,-0.10677 -7.18398,-0.44097 -0.0645,-0.24253 -0.3788,-2.09573 -0.69834,-4.11821 -0.68254,-4.32014 -2.13449,-8.75132 -3.79581,-11.58435 -0.65295,-1.11349 -2.45719,-3.31135 -4.00941,-4.88415 -4.53854,-4.5987 -9.28659,-6.47377 -16.41824,-6.48377 -4.32459,-0.006 -6.88927,0.55577 -10.39287,2.27669 -9.66486,4.74727 -14.9996,17.34381 -14.99016,35.39519 0.007,13.53005 2.54631,23.24095 7.78428,29.76973 4.47592,5.57893 10.01771,8.1402 17.61282,8.1402 6.7686,0 11.23268,-1.73929 15.55222,-6.05943 4.28664,-4.28725 6.42008,-8.86707 7.65578,-16.43454 l 0.63366,-3.88055 h 7.57014 7.57015 l -0.0413,3.52777 c -0.12588,10.75954 -5.2043,22.31366 -12.46255,28.35404 -8.39469,6.98613 -21.29559,10.26788 -36.18201,9.20402 -14.49934,-1.0362 -24.71128,-5.36772 -33.54549,-14.22875 -6.95264,-6.97376 -10.73358,-13.94885 -12.9887,-23.96168 -0.42794,-1.90003 -0.92009,-3.48753 -1.09369,-3.52777 -0.17359,-0.0403 -0.51263,0.87931 -0.75343,2.04348 -1.07846,5.21405 -4.02991,11.60163 -7.79201,16.86368 -2.642912,3.69661 -8.699062,9.75571 -12.344442,12.35045 -5.6004,3.9863 -13.24785,7.39084 -19.9462,8.87978 -3.16284,0.70305 -3.59625,1.17758 -3.35514,3.6735 0.22162,2.29403 1.19872,4.12888 2.68933,5.05013 2.37393,1.46717 4.60264,0.84012 9.00383,-2.5332 1.27344,-0.97605 2.44367,-1.77462 2.60051,-1.77462 0.43328,0 6.09042,5.77967 6.09042,6.22235 0,0.59068 -5.09003,4.87172 -8.5666,7.20504 -3.74364,2.51257 -7.43904,4.32059 -10.35793,5.06776 -2.90864,0.74454 -7.5645,0.68072 -9.85651,-0.1351 z m -11.59832,-41.33377 c 0.1307,-0.4118 0.22577,-2.91211 0.21127,-5.55625 -0.0632,-11.51847 -3.74969,-18.72557 -10.33527,-20.20525 -3.19647,-0.7182 -7.343186,1.51965 -8.967402,4.83943 -0.840498,1.71792 -0.926284,2.22873 -0.782008,4.65644 0.227772,3.83268 1.434179,6.17589 5.04096,9.79109 3.1689,3.17631 6.38885,5.08985 10.76181,6.39548 3.33029,0.99433 3.77739,1.00302 4.07064,0.0791 z m 23.62027,-11.86227 c 10.70246,-9.48952 17.48211,-18.40982 19.77445,-26.01818 0.9303,-3.08766 0.88848,-7.479 -0.10117,-10.62568 -1.82809,-5.81252 -7.26571,-11.54701 -13.20976,-13.93093 -2.59325,-1.04004 -7.43549,-1.27748 -10.64778,-0.52211 -7.21165,1.69582 -15.35126,7.11844 -23.68304,15.77765 -4.49708,4.67381 -10.43809,12.0528 -10.01838,12.44327 0.0773,0.072 1.48998,-0.42471 3.13921,-1.10368 3.82697,-1.5755 8.61024,-1.9778 11.68039,-0.98239 8.90011,2.88563 15.53854,12.27061 17.59383,24.87304 0.55085,3.37762 0.59945,3.52778 1.14185,3.52778 0.24864,0 2.19733,-1.54745 4.3304,-3.43877 z m 40.551164,-27.87026 c 0.53118,-3.73931 1.75074,-9.38046 2.53084,-11.70648 2.229,-6.64622 6.04488,-12.87647 11.17002,-18.23748 6.87463,-7.19098 14.09091,-11.28079 24.5184,-13.89572 0.83049,-0.20828 1.41643,-0.53 1.30211,-0.71498 -0.12932,-0.20924 -12.33252,-0.33631 -32.29834,-0.33631 H 84.254976 l 0.0967,-5.90904 0.0967,-5.90901 3.70416,-0.20907 c 4.30856,-0.24316 5.37624,-0.65305 6.24481,-2.39745 0.59265,-1.19027 0.6408,-3.18196 0.73239,-30.290017 0.0638,-18.89142 -0.0233,-29.01597 -0.24964,-29.01597 -0.19122,0 -0.66363,1.07156 -1.04978,2.38125 -0.38615,1.30969 -3.10189,10.477499 -6.03498,20.372913 -2.93309,9.895419 -5.70751,19.261669 -6.16538,20.813894 -2.67504,9.0687 -3.59518,12.18065 -6.10216,20.6375 l -2.77132,9.34861 -5.2588,0.0981 c -5.54525,0.10342 -6.94845,0.46572 -4.34904,1.12287 11.23591,2.84056 19.6441,7.9731 29.16913,17.80549 7.721354,7.97051 12.808854,16.20271 15.289574,24.74035 0.41926,1.44291 0.88938,2.62348 1.04471,2.62348 0.15533,0 0.36698,-0.59531 0.47034,-1.32292 z M 191.13588,135.319 c 0.78778,-2.10727 1.34507,-3.97258 1.23843,-4.14514 -0.26592,-0.43026 -21.57167,-0.40823 -21.83793,0.0226 -0.11431,0.18497 0.47163,0.51564 1.3021,0.73482 5.16889,1.36417 11.3146,4.11119 15.26829,6.82464 1.34078,0.92019 1.86378,1.1127 2.18033,0.80254 0.22904,-0.22442 1.06099,-2.13217 1.84878,-4.23944 z m -66.59411,-17.77624 c 0.48983,-0.53358 4.69964,-5.89139 9.35511,-11.90625 4.65547,-6.014865 15.42446,-19.90549 23.93107,-30.868061 8.50661,-10.962566 15.75651,-20.310536 16.11089,-20.773266 1.46569,-1.91385 1.50325,-1.90685 -9.14527,-1.70357 -10.80455,0.20627 -12.92887,0.50662 -17.06389,2.41257 -5.07728,2.34027 -7.4115,6.52055 -8.74129,15.654546 l -0.56496,3.880554 h -5.82083 -5.82084 l -0.17639,-10.93611 -0.17638,-10.93611 -1.94384,0.0354 c -2.37509,0.0432 -4.0148,0.83979 -4.84116,2.35185 -0.57884,1.05912 -0.6305,3.16429 -0.72354,29.482747 -0.1025,28.99314 -0.005,31.5744 1.2457,32.96569 1.38044,1.53561 3.15167,1.67327 4.37562,0.34004 z"
       id="path826"
       inkscape:connector-curvature="0" />
  </g>
</svg>
